<svg xmlns="http://www.w3.org/2000/svg" viewBox="0 0 210 210" role="img" aria-label="Glider">
  <path
    fill="#0b5e97"
    fill-rule="evenodd"
    stroke="#ffffff"
    stroke-width="1.851"
    stroke-linecap="round"
    d="m 6.4768004,26.362852 7.7890926,-0.486826 92.174727,59.921595 9.27373,-1.960604 4.41016,-0.925902 -13.85254,-12.292553 5.00409,-1.504091 12.03703,8.364252 9.73636,-15.578172 h 6.81546 l -6.81546,20.446348 19.47272,8.275906 -5.65362,2.561317 -18.49908,-6.328632 -12.35864,4.254141 87.1404,37.971789 -6.81545,3.40772 -93.95586,-35.537693 c 0,0 -5.667361,4.304633 -8.275901,5.841813 -1.537178,0.88504 -3.871707,2.01028 -8.762723,3.40771 -4.564951,1.30427 -8.567258,1.9217 -10.709991,2.43409 -2.235891,0.51239 -8.275905,0.97364 -8.275905,0.97364 0,0 -5.86869,0.32817 -7.302267,0 -1.226311,-0.27635 -3.068816,-0.89922 -3.672231,-2.10606 0,0 -0.751329,-1.05803 -0.751329,-2.29662 0,-2.0008 1.143944,-3.95167 2.858916,-5.571365 5.712826,-5.099953 9.311408,-6.919141 16.341831,-10.024165 2.604214,-1.143315 9.076891,-3.369039 9.076891,-3.369039 z"
  />
  <path
    fill="#f9f9f9"
    stroke="#ffffff"
    stroke-width="0.151262"
    stroke-linecap="round"
    d="m 81.792471,88.926265 c 0,0 -2.326796,0.819313 -4.117771,1.552662 -2.37138,0.971004 -5.184479,2.11421 -7.286055,3.219588 -2.152694,1.132271 -4.185513,2.17813 -6.338927,3.479225 0.806212,0.237518 2.198269,0.584559 2.192695,0.590323 2.20944,1.153673 2.817791,2.833537 3.434613,4.764697 0.0071,9.5e-4 0.0141,0.001 0.02115,0.002 0.448656,0.0338 0.899037,0.0567 1.35391,0.0271 1.271019,-0.0292 5.026833,-1.51597 7.930023,-2.32433 1.671527,-0.481464 4.378548,-0.941016 5.588904,-1.816041 0.217189,-0.283554 0.314692,-0.443444 0.479723,-0.914868 0.09527,-0.272153 0.353487,-1.450004 0.324197,-1.890928 -0.01181,-0.17766 -0.02153,-1.20291 -0.02535,-1.380909 -0.01606,-0.742005 -0.04975,-1.353657 -0.04283,-1.88955 0.0066,-0.986655 -0.19808,-1.295083 -0.376779,-2.147626 -0.194497,-0.927889 -0.167427,-0.483392 -0.4209,-1.69825 -0.709528,-0.379795 -0.9318,-0.220805 -1.731047,0.02068 z"
  />
  <path
    fill="#0b5e97"
    stroke="#fffffa"
    stroke-width="0.822"
    d="m 32.251433,144.00716 -24.3455249,35.28422 86.1000319,-1.96024 4.750348,3.52842 c 3.814072,1.6346 7.740432,1.6346 11.282072,0 l 4.75034,-3.52842 87.88141,1.56819 -23.75173,-35.28422 z"
  />
  <path
    fill="#ffffff"
    stroke="#0b5e97"
    stroke-width="1.022"
    d="m 39.376955,140.47874 -22.564148,34.10808 h 20.188975 c 20.808236,-1.08095 24.023603,-2.74706 33.846219,-3.52841 6.938084,-0.39068 13.143214,0.62007 19.001386,1.56818 5.079383,0.90231 7.473834,3.11855 7.473834,3.11855 0,0 2.481016,-3.55306 7.587919,-3.2936 3.91423,0.16692 6.90859,3.31141 6.90859,3.31141 0,0 10.73054,-3.76764 17.81382,-4.31251 7.35571,-0.8173 64.72346,3.92047 64.72346,3.92047 l -21.37657,-34.10808 c 0,0 -38.64261,-5.8807 -45.12829,-5.8807 -3.78332,-0.27024 -6.04093,0.36542 -10.09448,1.17613 -2.70237,0.54047 -13.65724,5.09661 -13.65724,5.09661 0,0 -6.311174,-3.35337 -10.09449,-4.70455 -2.702368,-1.35118 -6.040935,-1.56819 -10.094488,-1.56819 -4.864263,-0.27024 -11.811629,0.0952 -20.188971,1.17613 -7.296395,0.54047 -24.345526,3.92048 -24.345526,3.92048 z"
  />
  <path
    fill="none"
    stroke="#0b5e97"
    stroke-width="1.022"
    stroke-linecap="round"
    d="m 42.287298,146.17664 25.993108,-3.10366 17.846017,-1.16386 12.41462,3.87956"
  />
  <path
    fill="none"
    stroke="#0b5e97"
    stroke-width="1.022"
    stroke-linecap="round"
    d="m 106.68813,145.40073 13.96645,-4.26753 12.02667,-0.38796 36.8559,5.4314"
  />
  <path
    fill="none"
    stroke="#0b5e97"
    stroke-width="1.022"
    stroke-linecap="round"
    d="m 35.304073,152.38395 42.675254,-5.04344 9.310967,0.38796 11.638706,4.26752"
  />
  <path
    fill="none"
    stroke="#0b5e97"
    stroke-width="1.022"
    stroke-linecap="round"
    d="m 31.812462,159.75513 43.06321,-5.4314 10.474837,0.77592 12.802577,3.49161"
  />
  <path
    fill="none"
    stroke="#0b5e97"
    stroke-width="1.022"
    stroke-linecap="round"
    d="m 26.381066,166.73835 43.839125,-4.65548 12.41462,-0.38795 13.966448,3.87956"
  />
  <path
    fill="none"
    stroke="#0b5e97"
    stroke-width="1.022"
    stroke-linecap="round"
    d="m 109.40383,151.99599 13.57849,-5.04344 12.02666,-0.38795 37.24386,5.04344"
  />
  <path
    fill="none"
    stroke="#0b5e97"
    stroke-width="1.022"
    stroke-linecap="round"
    d="m 109.79179,157.81535 15.13032,-5.04344 h 10.08688 l 38.01977,5.04344"
  />
  <path
    fill="none"
    stroke="#0b5e97"
    stroke-width="1.022"
    stroke-linecap="round"
    d="m 110.95566,164.79857 15.13032,-4.26753 h 11.25075 l 41.51138,4.65549"
  />
</svg>
